<svg xmlns="http://www.w3.org/2000/svg" viewBox="0 0 578.52 288.41">
    <defs>
        <style>
            .cls-1,.cls-3{fill:#000100;}.cls-2{stroke:#000;}.cls-2,.cls-3{stroke-miterlimit:10;}.cls-3{stroke:#000100;}.cls-4{fill:#040505;}
        </style>
    </defs>
    <g id="Слой_2" data-name="Слой 2">
        <g id="Слой_1-2" data-name="Слой 1">
            <path class="cls-1"
                  d="M507,133.47c1.95,1.47,48.39,40.24,50.23,41.81a74.54,74.54,0,0,1,10.94,11.24A49.62,49.62,0,0,1,578,210a46.36,46.36,0,0,1-3,24.46c-3.57,8.71-9.81,15.11-17.86,19.77a80.37,80.37,0,0,1-26.64,9.45c-4.86.85-9.81,1.26-14.73,1.65a93.93,93.93,0,0,1-10.87.25c-5.26-.2-10.51-.61-15.75-1.09-4.62-.42-9.25-.94-13.84-1.63-6.28-.95-12.53-2.08-18.79-3.17-5.77-1-11.53-2.08-17.31-3.08-5.36-.93-10.72-1.88-16.09-2.71-4.14-.63-8.3-1.15-12.45-1.63-5-.57-9.92-1.06-14.89-1.55-1.59-.16-3.19-.27-4.79-.32-7.38-.2-14.76-.57-22.13-.5-6.13.05-12.26.51-18.37,1a153,153,0,0,0-41,8.86,116.08,116.08,0,0,0-31.44,17.71c-3.83,3-7.21,6.6-10.79,9.92a7.7,7.7,0,0,1-.83.79,2.85,2.85,0,0,1-.8.21,2.41,2.41,0,0,1,0-.81,22.87,22.87,0,0,1,4.56-6.66c6.65-6.92,14.57-12.16,22.75-17.05a122.77,122.77,0,0,1,38.94-15.17c5.63-1.14,11.33-1.94,17-2.62,4.5-.55,9-.87,13.56-1q11.06-.25,22.12-.06c5,.09,9.92.43,14.86.91,6.55.63,13.11,1.32,19.62,2.33,10.26,1.59,20.49,3.44,30.72,5.24,8.2,1.45,16.38,3.09,24.6,4.47,5.18.88,10.4,1.55,15.62,2.13,4.58.52,9.19.91,13.79,1.13,4.38.21,8.79.35,13.17.15a91.43,91.43,0,0,0,35.1-8.2c8.64-4,15.66-9.89,19.85-18.67a42.62,42.62,0,0,0,4-21.13,47.38,47.38,0,0,0-11.24-28.13c-3.94-4.75-51.91-45.83-56.91-49.47C507.06,135.26,506.36,134.24,507,133.47Z"/>
            <path class="cls-2"
                  d="M.72,128V40.31Q6.38,40,12.27,39.7c3.94-.17,7.7-.31,11.31-.43s7-.23,10.08-.31,5.82-.12,8.11-.12a111.58,111.58,0,0,1,15.43,1,32.45,32.45,0,0,1,12.23,4.06,20.9,20.9,0,0,1,8,8.78Q80.38,58.39,80.37,68a38.79,38.79,0,0,1-1.53,11.68,23.93,23.93,0,0,1-4.31,8.11A19.76,19.76,0,0,1,67.77,93,34.25,34.25,0,0,1,59,95.75l19.55,31.59-.13.74-8.85,1.1L49.52,97q-1.85.12-3.75.12h-4c-3.68,0-8.42-.08-14.19-.24s-11.78-.41-18-.74V128Zm70.8-60q0-6.76-2.27-10.88A15.51,15.51,0,0,0,63,50.82,27.15,27.15,0,0,0,53.45,48a98.7,98.7,0,0,0-11.92-.67q-5.41,0-14,.3t-18,.8V87.64q9.47.48,18,.73t14,.25a96.61,96.61,0,0,0,11.92-.68A26.94,26.94,0,0,0,63,85.12a15.61,15.61,0,0,0,6.27-6.21Q71.52,74.85,71.52,68Z"/>
            <path class="cls-2"
                  d="M134.33,121.32c3.28,0,6.74-.15,10.39-.43a38.11,38.11,0,0,0,10-2.09,19.17,19.17,0,0,0,7.5-4.8c2-2.09,2.95-5,2.95-8.66a11.59,11.59,0,0,0-2.28-7.5,16.26,16.26,0,0,0-6.33-4.61,42.55,42.55,0,0,0-9.46-2.77q-5.42-1-11.68-2Q127.7,87.15,121,85.73a42.63,42.63,0,0,1-11.68-4.12,21.58,21.58,0,0,1-7.87-7.07q-2.88-4.35-2.89-11.61,0-7.62,3.14-12.36a21.87,21.87,0,0,1,8.36-7.43,36.79,36.79,0,0,1,12-3.63,103.53,103.53,0,0,1,13.89-.92q7.38,0,16.35.74t17.82,2l-.61,8.49a152.71,152.71,0,0,0-17.64-2.16q-8.79-.54-15.55-.55c-3.44,0-6.88.15-10.33.43a32.15,32.15,0,0,0-9.28,2.09,16.36,16.36,0,0,0-6.7,4.86q-2.58,3.19-2.58,8.72a13,13,0,0,0,1.85,7.32A13.34,13.34,0,0,0,114.6,75a36.09,36.09,0,0,0,8.73,2.76q5.22,1,12.11,2.15,8.24,1.35,15.24,3a52.46,52.46,0,0,1,12.17,4.24,21.26,21.26,0,0,1,8.11,7q3,4.36,2.95,11.25,0,7.86-3.56,12.66a23.51,23.51,0,0,1-9.16,7.37,42.26,42.26,0,0,1-12.41,3.45,107.35,107.35,0,0,1-13.34.86q-8.48,0-18.32-.68t-19.66-2l.49-8.48a170.74,170.74,0,0,0,19.6,2.27Q127.21,121.32,134.33,121.32Z"/>
            <path class="cls-2" d="M267.34,128H194.69V40.31h8.85v79.16h64.53Z"/>
            <path class="cls-3"
                  d="M23.32,225.21c2,0,4.17-.08,6.42-.26a23.66,23.66,0,0,0,6.2-1.29,11.86,11.86,0,0,0,4.63-3,7.48,7.48,0,0,0,1.83-5.35A7.17,7.17,0,0,0,41,210.7a10.16,10.16,0,0,0-3.91-2.85,27,27,0,0,0-5.85-1.71q-3.35-.6-7.22-1.22c-3.2-.55-6.17-1.12-8.93-1.7a27,27,0,0,1-7.22-2.55A13.28,13.28,0,0,1,3,196.3a12.75,12.75,0,0,1-1.79-7.18,13.63,13.63,0,0,1,1.94-7.64,13.48,13.48,0,0,1,5.16-4.59,22.64,22.64,0,0,1,7.41-2.25,63.56,63.56,0,0,1,8.59-.57c3,0,6.41.16,10.11.46s7.37.71,11,1.21L45.05,181a94.78,94.78,0,0,0-10.9-1.33c-3.62-.23-6.83-.34-9.61-.34q-3.19,0-6.39.26a19.83,19.83,0,0,0-5.73,1.29,10,10,0,0,0-4.14,3,8.29,8.29,0,0,0-1.6,5.39,8,8,0,0,0,1.14,4.52,8.19,8.19,0,0,0,3.31,2.78,22.09,22.09,0,0,0,5.39,1.71q3.23.65,7.49,1.33,5.08.82,9.42,1.82A32.25,32.25,0,0,1,41,204.05a13.15,13.15,0,0,1,5,4.33,12.24,12.24,0,0,1,1.82,7,12.77,12.77,0,0,1-2.2,7.82,14.47,14.47,0,0,1-5.66,4.56,26.33,26.33,0,0,1-7.68,2.13,66.71,66.71,0,0,1-8.24.53c-3.5,0-7.27-.14-11.33-.42s-8.1-.69-12.15-1.25l.3-5.24A107.23,107.23,0,0,0,13,224.87C16.93,225.1,20.38,225.21,23.32,225.21Z"/>
            <path class="cls-3"
                  d="M99.23,229.85c-3.54.3-6.76.46-9.65.46a66.48,66.48,0,0,1-10.82-.88,22.33,22.33,0,0,1-9.39-3.76,19.87,19.87,0,0,1-6.57-8.47q-2.47-5.59-2.47-15t2.47-15a19.81,19.81,0,0,1,6.57-8.47A22.33,22.33,0,0,1,78.76,175a66.48,66.48,0,0,1,10.82-.88c2.89,0,6.11.16,9.65.46s7.07.71,10.57,1.21l-.46,5.25c-1.67-.31-3.38-.57-5.13-.8s-3.47-.4-5.17-.53-3.31-.22-4.86-.27-3-.07-4.22-.07q-3.1,0-6.11.22a27.92,27.92,0,0,0-5.7,1,18.8,18.8,0,0,0-5,2.28,13.58,13.58,0,0,0-4,4,19.77,19.77,0,0,0-2.58,6.3,44.53,44.53,0,0,0,0,18,19.74,19.74,0,0,0,2.58,6.31,13.58,13.58,0,0,0,4,4,18.8,18.8,0,0,0,5,2.28,27.26,27.26,0,0,0,5.7,1c2,.16,4,.23,6.11.23,1.27,0,2.68,0,4.22-.07s3.17-.14,4.86-.27,3.42-.3,5.17-.53,3.46-.5,5.13-.8l.46,5.24C106.3,229.14,102.78,229.54,99.23,229.85Z"/>
            <path class="cls-3"
                  d="M168.38,175.14h5.4v33.43a22.79,22.79,0,0,1-2,10,18.72,18.72,0,0,1-5.39,6.76,22,22,0,0,1-8.06,3.87,38.37,38.37,0,0,1-9.88,1.22,39.18,39.18,0,0,1-10-1.22,22.29,22.29,0,0,1-8.13-3.87,18.41,18.41,0,0,1-5.43-6.76,22.79,22.79,0,0,1-2-10V175.14h5.47v33.43a16.48,16.48,0,0,0,1.6,7.56,14.28,14.28,0,0,0,4.33,5.17,18.46,18.46,0,0,0,6.38,3,30.36,30.36,0,0,0,7.75,1,30,30,0,0,0,7.72-1,18.15,18.15,0,0,0,6.3-3,14.5,14.5,0,0,0,4.3-5.17,16.61,16.61,0,0,0,1.59-7.56Z"/>
            <path class="cls-3" d="M232.06,229.32H187.15V175.14h5.47v48.93h39.9Z"/>
            <path class="cls-3"
                  d="M245.28,229.32V175.14q3.5-.22,7.15-.38l7-.27,6.23-.19c1.92-.05,3.59-.07,5-.07a70.29,70.29,0,0,1,9.54.6,20.08,20.08,0,0,1,7.56,2.51,13,13,0,0,1,5,5.43,26.05,26.05,0,0,1,0,18.93,13,13,0,0,1-5,5.43,20.08,20.08,0,0,1-7.56,2.51,70.29,70.29,0,0,1-9.54.6q-3.42,0-8.77-.15t-11.14-.45v19.68Zm43.77-37.08a14,14,0,0,0-1.4-6.73,9.54,9.54,0,0,0-3.88-3.88,16.77,16.77,0,0,0-5.89-1.74,60.64,60.64,0,0,0-7.37-.42q-3.35,0-8.62.19t-11.14.49v24.24q5.85.31,11.14.46t8.62.15a60.64,60.64,0,0,0,7.37-.42,16.37,16.37,0,0,0,5.89-1.75,9.54,9.54,0,0,0,3.88-3.83A13.94,13.94,0,0,0,289.05,192.24Z"/>
            <path class="cls-3" d="M326.21,229.32V180.46H303v-5.32h51.21l-.45,5.32H331.6v48.86Z"/>
            <path class="cls-3" d="M364.28,229.32V175.14h5.47v54.18Z"/>
            <path class="cls-3" d="M429.25,229.32,388.6,184.26v45.06h-5.48V175.14h4.49l40.58,45.13V175.14h5.39v54.18Z"/>
            <path class="cls-3"
                  d="M452.05,202.19q0,7.83,2.16,12.38a16.25,16.25,0,0,0,5.7,6.88,19.44,19.44,0,0,0,8,3,64.46,64.46,0,0,0,9.19.64c2.48,0,5.14-.07,8-.23a62.37,62.37,0,0,0,8.59-1.06V204.92H471.42v-5.31h27.74v28.26q-6.39,1.22-11.74,1.83a98.54,98.54,0,0,1-11,.61q-3.65,0-7.26-.35a32.57,32.57,0,0,1-6.95-1.4,23.87,23.87,0,0,1-6.16-3,18.57,18.57,0,0,1-4.94-5,24.15,24.15,0,0,1-3.3-7.64,42.8,42.8,0,0,1-1.18-10.75q0-9.34,2.58-14.89a20.81,20.81,0,0,1,6.84-8.52,23.12,23.12,0,0,1,9.62-3.83,68.36,68.36,0,0,1,11-.88c3.44,0,6.92.16,10.44.46s7,.71,10.53,1.21l-.46,5.25a79.91,79.91,0,0,0-10.29-1.33c-3.53-.23-6.73-.34-9.62-.34q-3.18,0-6.27.22a30.1,30.1,0,0,0-5.88,1,19.73,19.73,0,0,0-5.21,2.32,14.27,14.27,0,0,0-4.14,4.06,20.1,20.1,0,0,0-2.74,6.27A35.37,35.37,0,0,0,452.05,202.19Z"/>
            <path class="cls-1"
                  d="M249.58,65.47a101.27,101.27,0,0,1,3.07-17,131.61,131.61,0,0,1,9.9-25.95A79.08,79.08,0,0,1,273.16,6.19,26.85,26.85,0,0,1,279.9.37a2.43,2.43,0,0,1,2.24-.18q26.64,10,53.29,19.92L394,42c15.81,5.89,31.58,11.86,47.43,17.63,3.22,1.18,4.67,3.39,5.44,6.39a23.53,23.53,0,0,1,.7,6.79c-.09,2.26-.19,4.53-.42,6.78-.2,2-.57,3.89-.91,5.84-.06.36,0,.52.32.65a51.08,51.08,0,0,1,12.09,6.76c4.4,3.19,8.71,6.53,13.26,9.51a151.85,151.85,0,0,0,27.63,14.21c2.78,1.09,5.5,2.36,8.25,3.53a2.35,2.35,0,0,1,1.35,1.49,15.24,15.24,0,0,1,.47,7.31,23.45,23.45,0,0,1-2.93,8.58,12.63,12.63,0,0,1-4,4.44,2.56,2.56,0,0,1-2.58.21c-5.56-2.3-11.11-4.65-16.75-6.74-4.17-1.55-8.44-2.86-12.73-4s-8.38-2.08-12.62-2.9-8.24-1.28-12.36-1.94a47.93,47.93,0,0,1-12.72-3.73c-.49-.23-.62,0-.82.34a61.92,61.92,0,0,1-6.68,9.49,24.52,24.52,0,0,1-6.18,5.34,7.32,7.32,0,0,1-5.56.93,35.91,35.91,0,0,1-3.84-1.38l-56.21-21L268.32,84.6c-5.65-2.11-11.3-4.23-17-6.32a1.72,1.72,0,0,1-1.19-1.38,34.87,34.87,0,0,1-.69-8.34C249.51,67.37,249.56,66.18,249.58,65.47ZM292.92,6.34c-.76,2.22-1.52,4.34-2.19,6.49a9,9,0,0,0,.08,5.68c.3.89.61,1.78.85,2.68a.91.91,0,0,0,.67.73Q304.69,26.46,317,31L362.2,47.7l19.37,7.15c2.07.77,4.18,1.45,6.21,2.33,3.44,1.49,5.34,4.61,4.71,7.9-.72,3.8-1.49,7.6-2.53,11.32a121.26,121.26,0,0,1-10.45,25.37,79,79,0,0,1-10.7,15.57c-.61.67-1.25,1.32-1.9,2l.64.26q22.51,8.41,45,16.84a1.7,1.7,0,0,0,1.89-.31,25.87,25.87,0,0,0,4.48-4.81,83.93,83.93,0,0,0,9.08-16,157.69,157.69,0,0,0,12-38.73,61.43,61.43,0,0,0,1-14.39.78.78,0,0,0-.62-.8c-4.71-1.74-9.42-3.51-14.13-5.27L372.44,36l-33-12.31L298.28,8.32Zm153,81.29c-.74,2.78-1.39,5.41-2.14,8a123.71,123.71,0,0,1-10,24.48c-.51.93-.52.93.49,1.33l.44.17A59.88,59.88,0,0,0,448.79,125a169.61,169.61,0,0,1,16.75,3,160.53,160.53,0,0,1,20,6.15c5.07,2,10.1,4.06,15.14,6.11a1,1,0,0,0,1.18-.14,20.42,20.42,0,0,0,2.48-2.62,20,20,0,0,0,3.47-10.37,24,24,0,0,0-.42-4.53,1.27,1.27,0,0,0-.69-.79c-2.59-1.15-5.18-2.32-7.82-3.37a155.54,155.54,0,0,1-37.44-21,82.1,82.1,0,0,0-11.86-8C448.39,88.76,447.14,88.22,445.9,87.63Zm-166-84.88-.09-.17c-1.29,1.17-2.64,2.28-3.85,3.52a58.31,58.31,0,0,0-8.23,11.09,125.3,125.3,0,0,0-11.84,27.09,104.51,104.51,0,0,0-3.85,17,56.56,56.56,0,0,0-.56,10.4c.07,1.13.22,2.25.34,3.38l.27.17.58-.73c1.6-1.92,3.35-3.75,4.78-5.8a101.44,101.44,0,0,0,10-19,170.23,170.23,0,0,0,8.08-23.64c1-4,2-8.09,2.82-12.16.5-2.32.85-4.67,1.19-7C279.72,5.51,279.76,4.12,279.86,2.75ZM282,2.26c0,.22-.06.35-.07.48-.34,2.63-.57,5.27-1,7.87-.73,4.05-1.51,8.09-2.47,12.09a175.7,175.7,0,0,1-6.1,19.94A136,136,0,0,1,261,66.83a40.55,40.55,0,0,1-7.7,9.7,1.41,1.41,0,0,0-.19.32l10.43,3.89c.8-2.49,1.56-4.9,2.35-7.3C268.65,65,272.35,57,278.28,50.16A31.22,31.22,0,0,0,283.15,43a102.14,102.14,0,0,0,6.24-17,9.19,9.19,0,0,0-.18-6.18,11.37,11.37,0,0,1,.16-8.9c.67-1.69,1.26-3.42,1.91-5.19Zm75.34,113.53c2.44.91,4.82,1.81,7.21,2.68a.65.65,0,0,0,.55-.18c.77-.72,1.54-1.45,2.25-2.22a77,77,0,0,0,10.5-15.31,121.4,121.4,0,0,0,11.23-28.5c.66-2.65,1-5.36,1.5-8.05a4.22,4.22,0,0,0-1.23-3.56,7.15,7.15,0,0,0-3.05-2l-6.86-2.51A3.52,3.52,0,0,0,379,56a8.23,8.23,0,0,1-3.6,8.64,8.22,8.22,0,0,1,6.51,10.63,7.82,7.82,0,0,1-5,5.06,8.28,8.28,0,0,1-7.25-1A8.15,8.15,0,0,1,364,91.58,8.24,8.24,0,0,1,371,101.76a7.72,7.72,0,0,1-5.25,5.57,8.28,8.28,0,0,1-7.67-1.39C359.94,109.5,359.73,112.69,357.34,115.79ZM293.06,50.52a8.52,8.52,0,0,1-.85-6.5,8.15,8.15,0,0,1,4.3-5.12c-4.14-1.38-6.18-4.18-6.29-8.48-.13.29-.24.51-.32.73-.61,1.68-1.24,3.36-1.81,5.05a45.11,45.11,0,0,1-8.61,15.59,47.68,47.68,0,0,0-6.64,9.83,99.55,99.55,0,0,0-6.56,16.92c-.29,1-.62,1.9-.95,2.89l18,6.71a8.47,8.47,0,0,1,1.62-4.5,8.78,8.78,0,0,1,3.88-2.83c-4.6-.68-7.34-2.76-8-6.3-.93-4.66,1.09-7.82,5.38-9.68a8.21,8.21,0,0,1-5.37-11.44,7.78,7.78,0,0,1,4.41-4A8.28,8.28,0,0,1,293.06,50.52Zm123.7,86.28.35-.06.5-.19a15.87,15.87,0,0,0,4.58-3.38,46.3,46.3,0,0,0,6.86-8.85,118,118,0,0,0,15.77-42.06,48.8,48.8,0,0,0,.7-12.65,13.57,13.57,0,0,0-1.68-6,9,9,0,0,0-.73-.93c-.11.9,0,1.71-.08,2.51-.18,2.68-.28,5.37-.62,8-.42,3.21-.89,6.44-1.61,9.59-1.06,4.6-2.25,9.17-3.61,13.68a146.38,146.38,0,0,1-10.05,25.11,65.75,65.75,0,0,1-8.36,13C418.16,135.33,417.49,136,416.76,136.8ZM295.13,57.18a7.12,7.12,0,0,0-6.91-7.36,7.1,7.1,0,0,0-.39,14.2A7,7,0,0,0,295.13,57.18Zm30.35,26.45a7.11,7.11,0,0,0-6.88-7.39,7,7,0,0,0-7.29,7,7.1,7.1,0,0,0,6.84,7.25A7,7,0,0,0,325.48,83.63Zm.28-11a7.27,7.27,0,0,0,6.58,7.7,7.08,7.08,0,0,0,7.56-6.45,7.23,7.23,0,0,0-6.56-7.77A7.14,7.14,0,0,0,325.76,72.67ZM307.87,51a7.26,7.26,0,0,0,6.59,7.69A7.09,7.09,0,0,0,322,52.18a7.21,7.21,0,0,0-6.57-7.69A7.14,7.14,0,0,0,307.87,51Zm14.72,5.19a7.27,7.27,0,0,0,6.58,7.7,7.1,7.1,0,0,0,7.57-6.51,7.23,7.23,0,0,0-6.57-7.7A7.12,7.12,0,0,0,322.59,56.21Zm18,22a7.18,7.18,0,0,0,6.6,7.74,7,7,0,0,0,7.54-6.46,7.22,7.22,0,0,0-6.58-7.74A7.13,7.13,0,0,0,340.59,78.23Zm25.69-10.18a7.11,7.11,0,0,0-6.94-7.4,7,7,0,0,0-7.23,6.94,7.1,7.1,0,0,0,6.82,7.26A7,7,0,0,0,366.28,68.05Zm.85,4.07a7.28,7.28,0,0,0,6.59,7.7,7.1,7.1,0,0,0,7.56-6.46,7.23,7.23,0,0,0-6.57-7.76A7.14,7.14,0,0,0,367.13,72.12Zm-15.81-9.7a7.12,7.12,0,0,0-6.87-7.4,7.1,7.1,0,1,0,6.87,7.4ZM310.25,78.1a7.12,7.12,0,0,0-6.89-7.38,7.1,7.1,0,1,0,6.89,7.38ZM355.62,83a7.27,7.27,0,0,0,6.57,7.71,7.1,7.1,0,0,0,7.57-6.51,7.23,7.23,0,0,0-6.55-7.71A7.14,7.14,0,0,0,355.62,83Zm-59.5-21.67A7.27,7.27,0,0,0,302.69,69a7.09,7.09,0,0,0,7.58-6.5,7.23,7.23,0,0,0-6.55-7.71A7.13,7.13,0,0,0,296.12,61.29ZM307,46.51a7.1,7.1,0,0,0-6.9-7.37,7,7,0,0,0-7.27,7,7.1,7.1,0,0,0,6.86,7.22A7,7,0,0,0,307,46.51ZM355,95.24a7.11,7.11,0,0,0-6.88-7.38,7,7,0,0,0-7.28,7,7.09,7.09,0,0,0,6.84,7.24A7,7,0,0,0,355,95.24Zm-14.82-5.63a7.1,7.1,0,0,0-6.9-7.36,7,7,0,0,0-7.27,7,7.09,7.09,0,0,0,6.87,7.22A7,7,0,0,0,340.14,89.61ZM325,67.66a7.12,7.12,0,0,0-6.94-7.4,7,7,0,0,0-7.23,6.95,7.09,7.09,0,0,0,6.83,7.25A7,7,0,0,0,325,67.66Zm31.13,31.43a7.18,7.18,0,0,0,6.6,7.67,7,7,0,0,0,7.55-6.44,7.23,7.23,0,0,0-6.58-7.76A7.14,7.14,0,0,0,356.11,99.09ZM281.51,72a7.25,7.25,0,0,0,6.54,7.73,7.08,7.08,0,0,0,7.6-6.47,7.22,7.22,0,0,0-6.59-7.74A7.13,7.13,0,0,0,281.51,72Zm24-40.4c-.12-.84-.21-1.68-.38-2.5a.92.92,0,0,0-.53-.58q-4.71-1.77-9.44-3.47a1.08,1.08,0,0,0-.89.13,6.81,6.81,0,0,0-3,6.3,7.11,7.11,0,0,0,6.57,6.59A7.19,7.19,0,0,0,305.49,31.61ZM364,56.91a7.24,7.24,0,0,0,7.45,7.91A7.07,7.07,0,0,0,378,56.11a1,1,0,0,0-.71-.8C374.1,54.16,371,53,367.8,51.85a1.13,1.13,0,0,0-.89.15A6.93,6.93,0,0,0,364,56.91Zm-.23-4.32a14.2,14.2,0,0,0-.26-1.85,1.05,1.05,0,0,0-.59-.68q-4.83-1.83-9.68-3.57a1,1,0,0,0-.83.11,6.68,6.68,0,0,0-2.82,4.91,7.11,7.11,0,1,0,14.18,1.08ZM335.11,41.91a14.54,14.54,0,0,0-.17-1.72,1.1,1.1,0,0,0-.59-.68c-3.26-1.23-6.54-2.42-9.8-3.64a.87.87,0,0,0-1,.17A6.92,6.92,0,0,0,321,42.1a7.11,7.11,0,0,0,6.62,6.54C331.43,48.93,334.67,46.1,335.11,41.91ZM349.54,47c0-.19-.05-.57,0-.95,0-.77-.38-1.12-1.08-1.37-3.18-1.13-6.34-2.31-9.5-3.49a.82.82,0,0,0-.91.14,6.86,6.86,0,0,0-2.59,4.7,7.16,7.16,0,0,0,7.43,7.93A7.07,7.07,0,0,0,349.54,47ZM320.68,36.39c0-.38-.06-.76-.06-1.14a1.16,1.16,0,0,0-.93-1.18c-3.24-1.16-6.47-2.36-9.69-3.57a.87.87,0,0,0-1,.14,6.84,6.84,0,0,0-2.47,4.62A7.17,7.17,0,0,0,314,43.18,7.06,7.06,0,0,0,320.68,36.39ZM358.36,111a13.28,13.28,0,0,0,0-1.41,7.09,7.09,0,0,0-14.14.66.71.71,0,0,0,.5.82q5.6,2.07,11.18,4.18a.62.62,0,0,0,.8-.23A7.19,7.19,0,0,0,358.36,111Zm-45-16.75c0-.47,0-.94,0-1.41a7.09,7.09,0,0,0-14.14.66.68.68,0,0,0,.49.76q5.63,2.07,11.24,4.19a.6.6,0,0,0,.79-.23A7.19,7.19,0,0,0,313.34,94.25Zm14.75,6.23c.44-5.14-3.46-8.63-7.46-8.34A7.14,7.14,0,0,0,314,98.92a.77.77,0,0,0,.57.9q5.56,2,11.12,4.15a.72.72,0,0,0,1-.29A6.78,6.78,0,0,0,328.09,100.48Zm-29.63-11.3a12,12,0,0,0,0-1.34,7.1,7.1,0,0,0-14.14.11.61.61,0,0,0,.46.75q5.79,2.13,11.56,4.31a.55.55,0,0,0,.77-.23A7.13,7.13,0,0,0,298.46,89.18Zm37.77,8.94c-.23,0-.63,0-1,0a7,7,0,0,0-6.38,6.52.7.7,0,0,0,.37.56c3.88,1.48,7.77,2.93,11.66,4.4a.62.62,0,0,0,.84-.3,7.63,7.63,0,0,0,1.17-3A7.23,7.23,0,0,0,336.23,98.12Zm25.45-6.47a8.57,8.57,0,0,1-5.09-2.84,8.18,8.18,0,0,1-2-5.41,21.55,21.55,0,0,1-2.43,2.18A20.78,20.78,0,0,1,349.3,87c4.43,1.16,6.7,4.11,6.71,8.93A8.44,8.44,0,0,1,361.68,91.65ZM316.55,75.39a8.63,8.63,0,0,1-5-3.07,8.77,8.77,0,0,1-1.8-5.59,9.29,9.29,0,0,1-4.87,3.16,8.38,8.38,0,0,1,6.18,9.84A8.86,8.86,0,0,1,316.55,75.39ZM346.67,87c-4.83-1.23-7.13-4.22-7.08-9.19a8.67,8.67,0,0,1-5.3,3.5c4.68,1.25,6.93,4.29,6.85,9.24A8.35,8.35,0,0,1,346.67,87ZM301.44,69.81c-4.22-1.34-6.33-4.25-6.32-8.65A23.17,23.17,0,0,1,293,63.27a21.06,21.06,0,0,1-2.51,1.5c3.88,1.26,6,4,6.15,7.82A24.28,24.28,0,0,1,298.89,71,25.87,25.87,0,0,1,301.44,69.81Zm23.4,1.74a8.82,8.82,0,0,1-5.08,3.77,8.53,8.53,0,0,1,5.16,3.32,8.23,8.23,0,0,1,1.54,5.5c.71-.5,1.51-1.16,2.4-1.67a29.51,29.51,0,0,1,2.72-1.19C326.73,80,324.5,76.79,324.84,71.55Zm26.39-5.11c-4.25,4.25-6.1,4.63-11.67,2.37a9,9,0,0,1,1.32,5.51c3.36-3.94,7.21-4.54,11.75-1.91A8.63,8.63,0,0,1,351.23,66.44ZM308,47.43A8.7,8.7,0,0,1,312,44.06c-4.54-1.49-6.61-4.54-6.45-9.2a9.27,9.27,0,0,1-3.71,3.47C306.13,39.81,308.15,42.78,308,47.43ZM337.54,66.6a9.33,9.33,0,0,1-1.38-4.93,8.31,8.31,0,0,1-5.3,3.12,8.8,8.8,0,0,1-5.95-1.42,8.82,8.82,0,0,1,.89,5.71C329,65,332.84,64.13,337.54,66.6ZM323,51.91l3-2.52a8.26,8.26,0,0,1-6.13-8l-3.15,2.31A8.23,8.23,0,0,1,323,51.91ZM310.42,81.65a9.7,9.7,0,0,1-4.25,3.79,10.08,10.08,0,0,1,5.09,1.74A9.74,9.74,0,0,1,310.42,81.65ZM299.9,54.41A10.54,10.54,0,0,1,295,52.66a10,10,0,0,1,1.21,5.13A9.71,9.71,0,0,1,299.9,54.41Zm55.87,24.92a8.86,8.86,0,0,1,4.13-3.46,9,9,0,0,1-5.54-1.58A9.21,9.21,0,0,1,355.77,79.33ZM314.3,94.62a24.47,24.47,0,0,1,1.91-1.82,24.91,24.91,0,0,1,2.19-1.34,9.89,9.89,0,0,1-5-1.69A10,10,0,0,1,314.3,94.62Zm21.48,2.45a9.78,9.78,0,0,1,4.71,1.53l-.83-4.53A9.19,9.19,0,0,1,335.78,97.07Zm30.16-24.78a8.77,8.77,0,0,1-4,3.18,8.54,8.54,0,0,1,5,1.21C366.63,75.23,366.28,73.75,365.94,72.29ZM343.84,107a8.57,8.57,0,0,1,3.5-3.8l-4.19-1.53A8.84,8.84,0,0,1,343.84,107Zm11.25-8.19a9.24,9.24,0,0,1-3.56,3.39,9.61,9.61,0,0,1,4.75,1.68A9.1,9.1,0,0,1,355.09,98.85Zm-55.43-9.92A9.15,9.15,0,0,1,303.25,86a9.74,9.74,0,0,1-4.67-1.54C298.93,85.92,299.3,87.44,299.66,88.93ZM333,97.63l-4.27-1.28c.14,1.34.3,2.81.46,4.29A8.34,8.34,0,0,1,333,97.63ZM295,77.89l-3.54,2.54A9,9,0,0,1,296,81.91Zm11.9-27-3.29,2.83,4,1.26a20.77,20.77,0,0,1-.53-2C306.91,52.19,306.91,51.44,306.86,50.84Zm45.53,12.3,3.08-2.74-3.67-1.52Zm-27,29.1c-.16-1.25-.34-2.62-.49-3.8L321.46,91Zm-3.95-35.57-3.18,2.45,4.08,1.36C322.09,59.29,321.76,57.92,321.47,56.67Zm-10.1,5.65,3.24-2.5-3.92-1.22Zm25-10.06a9.45,9.45,0,0,1,1.34,4.82l2.9-2.36A9.43,9.43,0,0,1,336.4,52.26Zm-1-1.33c-.33-1.13-.77-2.61-1.17-4l-2.39,1.88Zm34.36,14.88L366.8,64.7l.59,3.44Zm-9.4-6.18,3.16,1.16c-.2-1-.41-2.14-.61-3.16Zm-11.89-7.16-2.26,1.7,3,1.45C348.94,54.61,348.69,53.53,348.44,52.47ZM308.26,29.86l-2-.71c.06,1.12.1,2.13.15,3.09Zm-17-3,2.19-2.46-1.63-.59C291.59,24.85,291.41,25.8,291.22,26.86Zm74.9,24.38-1.53-.55.15,1.89Zm-43.26-16-1.3-.43.14,1.62Zm13.27,6.5,1.11-1.15L336,40.14Zm7.19,66.83-.94,1.59.79.26Zm7.24-61.71,1-1-1.14-.41Z"/>
            <circle class="cls-4" cx="347.84" cy="78.8" r="6.05"/>
            <circle class="cls-4" cx="344.31" cy="62.3" r="6.05"/>
            <circle class="cls-4" cx="342.57" cy="46.86" r="6.05"/>
            <circle class="cls-4" cx="348.22" cy="95.01" r="6.05"/>
            <circle class="cls-4" cx="351.37" cy="110.48" r="6.05"/>
        </g>
    </g>
</svg>