<svg xmlns="http://www.w3.org/2000/svg" viewBox="0 0 130.53 73.58">
    <defs></defs>
    <title>BEAUTY LOUNGE</title>
    <g id="Слой_2" data-name="Слой 2">
        <g id="Слой_1-2" data-name="Слой 1">
            <path class="cls-1 white"
                  d="M10.68,11.5a7.93,7.93,0,0,1,4.5,2.12,5.58,5.58,0,0,1,1.63,4.08,5.13,5.13,0,0,1-1.93,4.39Q12.94,23.54,9,23.54H0v-1l.3,0q1.9-.13,2.25-.54a5.12,5.12,0,0,0,.35-2.54V4.37a5.07,5.07,0,0,0-.35-2.53Q2.2,1.43.3,1.3l-.3,0V.3H9.39a7.55,7.55,0,0,1,4.8,1.32,4.62,4.62,0,0,1,1.65,3.83A5.32,5.32,0,0,1,14.56,9,9.28,9.28,0,0,1,10.68,11.5ZM6.16,11h.92a5.63,5.63,0,0,0,4-1.3,5.14,5.14,0,0,0,1.35-3.88,4.18,4.18,0,0,0-1.24-3.44q-1.24-1-4.3-1H6.16Zm0,1.05v7.46q0,2.4.39,2.61a4.72,4.72,0,0,0,2.21.41,4.51,4.51,0,0,0,3.35-1.3,4.57,4.57,0,0,0,1.29-3.37Q13.4,12,6.16,12Z"></path>
            <path class="cls-1 white"
                  d="M37,23.54H20.24v-1l.3,0q1.9-.13,2.25-.54a5.12,5.12,0,0,0,.35-2.54V4.37a5.06,5.06,0,0,0-.35-2.53q-.35-.41-2.25-.53l-.3,0V.3H36.14V4.37H34.4l0-.3A6.81,6.81,0,0,0,34,1.73a8.34,8.34,0,0,0-2.52-.17H26.45v9.3l4.26,0a5.7,5.7,0,0,0,1.74-.15q.32-.15.39-1.48l0-.28H34.1V14H32.84l0-.28q-.06-1.18-.39-1.41a3.86,3.86,0,0,0-1.74-.23H26.45v7.37a3.71,3.71,0,0,0,.43,2.27,3.5,3.5,0,0,0,2.24.45H31.6a9,9,0,0,0,3.15-.27q.38-.27.49-2.35l0-.28H37Z"></path>
            <path class="cls-1 white"
                  d="M44.3,16.38,43,19.47a8.22,8.22,0,0,0-.77,2.44q0,.66,2,.66h.25v1h-6v-1l.33,0a2.9,2.9,0,0,0,1.61-.34,17.17,17.17,0,0,0,1.31-2.74L49.88,0H51l8.15,19.59a11.81,11.81,0,0,0,1.35,2.51,2.38,2.38,0,0,0,1.54.46l.36,0v1H53.76v-1H54q2.2,0,2.2-.63a6.71,6.71,0,0,0-.66-2.47l-1.3-3.09Zm.51-1.27h8.9L49.29,4.52Z"></path>
            <path class="cls-1"
                  d="M63.26,1.27V.3h9.16v1l-.28,0q-1.93.13-2.28.52a5.16,5.16,0,0,0-.35,2.54v9.94A35.73,35.73,0,0,0,69.7,19a4.73,4.73,0,0,0,.94,2.08,5.39,5.39,0,0,0,4.55,2,6.13,6.13,0,0,0,4.56-1.72A4.63,4.63,0,0,0,81,19.2a20.33,20.33,0,0,0,.29-4.2V4.37a5.07,5.07,0,0,0-.35-2.53q-.35-.41-2.27-.53l-.28,0V.3h7.44v1l-.3,0q-1.93.13-2.27.52a5.27,5.27,0,0,0-.34,2.54V14.1a22.36,22.36,0,0,1-.36,4.74,6.87,6.87,0,0,1-1.44,2.81q-2,2.47-6.31,2.47-8.64,0-8.64-9.28V4.37a5.07,5.07,0,0,0-.35-2.53q-.35-.41-2.25-.53Z"></path>
            <path class="cls-1"
                  d="M95.77,1.56H92.07a16.06,16.06,0,0,0-2.28.14q-.64.09-.64,1.16,0,.8,0,1.38l0,.31H87.45V.3H107.4V4.56h-1.65l0-.31q0-.58,0-1.38,0-1.07-.63-1.16a16.25,16.25,0,0,0-2.27-.14H99.07V19.48A5,5,0,0,0,99.45,22q.38.45,2.25.54l.68,0v1H92.49v-1l.68,0Q95,22.46,95.41,22a5,5,0,0,0,.37-2.54Z"></path>
            <path class="cls-1"
                  d="M117.84,13.24l-5.31-8.78q-1.68-2.76-1.87-2.93A4.2,4.2,0,0,0,109,1.3l-.31,0V.3h9v1h-.31q-2.23,0-2.26.51a8.63,8.63,0,0,0,1.29,2.68l4.36,7.33,4.54-7.31a8.81,8.81,0,0,0,1.35-2.68q0-.53-2.18-.53h-.28V.3h6.29v1l-.3,0a4.38,4.38,0,0,0-1.77.3,27.9,27.9,0,0,0-1.91,2.86l-5.42,8.78v6.24a5.27,5.27,0,0,0,.34,2.54q.34.4,2.27.54l.3,0v1h-9.11v-1l.28,0q1.95-.14,2.29-.54a5.27,5.27,0,0,0,.34-2.54Z"></path>
            <path class="cls-1 white"
                  d="M16.45,52.69H0v-1l.29,0q1.86-.12,2.21-.53a5,5,0,0,0,.35-2.49V33.9a5,5,0,0,0-.35-2.48Q2.15,31,.29,30.9l-.29,0v-1H8.92v1l-.29,0q-1.88.12-2.22.52a5.07,5.07,0,0,0-.34,2.48V48.7a4.68,4.68,0,0,0,.31,2.35,4.79,4.79,0,0,0,2.37.31h2.35a8.23,8.23,0,0,0,3.19-.32q.4-.32.52-2.61l0-.31h1.62Z"></path>
            <path class="cls-1 white"
                  d="M29.7,53.26a9.94,9.94,0,0,1-7.81-3.2Q19,46.86,19,41.3t2.86-8.76a9.94,9.94,0,0,1,7.81-3.2,9.94,9.94,0,0,1,7.81,3.2q2.86,3.2,2.86,8.76t-2.86,8.76A9.94,9.94,0,0,1,29.7,53.26Zm0-1A6.07,6.07,0,0,0,35,49.33q1.93-2.9,1.93-8t-1.93-8a6.06,6.06,0,0,0-5.33-2.9,6.06,6.06,0,0,0-5.33,2.9q-1.93,2.9-1.93,8t1.93,8A6.07,6.07,0,0,0,29.7,52.23Z"></path>
            <path class="cls-1 white"
                  d="M42.69,30.87v-1h9v1l-.28,0q-1.89.12-2.23.51a5.06,5.06,0,0,0-.34,2.49v9.74A35.1,35.1,0,0,0,49,48.25a4.65,4.65,0,0,0,.92,2,5.29,5.29,0,0,0,4.46,1.94,6,6,0,0,0,4.46-1.69,4.53,4.53,0,0,0,1.22-2.1,19.86,19.86,0,0,0,.28-4.12V33.9A5,5,0,0,0,60,31.42q-.35-.4-2.22-.52l-.28,0v-1h7.29v1l-.29,0q-1.89.12-2.22.51A5.15,5.15,0,0,0,62,33.9v9.54a21.87,21.87,0,0,1-.35,4.65,6.72,6.72,0,0,1-1.42,2.75q-2,2.42-6.19,2.42-8.46,0-8.46-9.09V33.9a5,5,0,0,0-.35-2.48Q44.85,31,43,30.9Z"></path>
            <path class="cls-1"
                  d="M84.35,53,70.59,33.92V48.7a5.06,5.06,0,0,0,.34,2.49q.34.39,2.23.53l.28,0v1H66.31v-1l.28,0q1.89-.14,2.23-.53a5.06,5.06,0,0,0,.34-2.49V33.9a5.09,5.09,0,0,0-.34-2.49q-.34-.39-2.22-.51l-.29,0v-1h5.15L84.1,47.6V33.9a5,5,0,0,0-.35-2.48q-.35-.4-2.22-.52l-.28,0v-1h7.09v1l-.29,0q-1.88.12-2.22.52a5.07,5.07,0,0,0-.34,2.48V53Z"></path>
            <path class="cls-1"
                  d="M109.92,52.14a30.76,30.76,0,0,1-7.4,1.12A10.43,10.43,0,0,1,94.45,50a12.4,12.4,0,0,1-3-8.75q0-5.68,2.92-8.79t8.23-3.12a23.28,23.28,0,0,1,3.71.29,22.2,22.2,0,0,1,3.55.88v4.14h-1.71l0-.31q0-.42,0-.88a2.53,2.53,0,0,0-1.41-2.27,7.86,7.86,0,0,0-3.93-.82,6.72,6.72,0,0,0-5.83,2.87q-2,2.87-2,8.16,0,5,2.29,7.76a7.72,7.72,0,0,0,6.33,2.8,13.3,13.3,0,0,0,3.2-.51V47a5.06,5.06,0,0,0-.34-2.49q-.34-.39-2.23-.53l-.28,0V43h8.93v1l-.28,0q-1.89.14-2.23.53a5.06,5.06,0,0,0-.34,2.49Z"></path>
            <path class="cls-1"
                  d="M130.53,52.69H114.11v-1l.29,0q1.86-.12,2.21-.53A5,5,0,0,0,117,48.7V33.9a5,5,0,0,0-.35-2.48q-.35-.4-2.21-.52l-.29,0v-1h15.57v4H128l0-.29a6.71,6.71,0,0,0-.31-2.29,8.18,8.18,0,0,0-2.47-.17h-5v9.11l4.17,0a5.58,5.58,0,0,0,1.7-.15q.31-.15.38-1.45v-.28h1.23v5h-1.23v-.27q-.06-1.16-.38-1.38a3.79,3.79,0,0,0-1.7-.22h-4.17V48.7a3.64,3.64,0,0,0,.42,2.22,3.43,3.43,0,0,0,2.19.44h2.43a8.86,8.86,0,0,0,3.09-.27q.38-.27.48-2.3l0-.28h1.71Z"></path>
            <path class="cls-1 white"
                  d="M0,71.39V69.5H.7v.12c0,.22,0,.39,0,.5a.87.87,0,0,0,.43.79,2.88,2.88,0,0,0,1.55.44,1.86,1.86,0,0,0,1.38-.5,1.88,1.88,0,0,0,.5-1.39,2,2,0,0,0-.32-1.18,4,4,0,0,0-1.24-1l-.7-.4Q.07,65.64.07,64.14a2.44,2.44,0,0,1,.81-1.88,2.92,2.92,0,0,1,2-.74,7,7,0,0,1,1.15.1,11,11,0,0,1,1.33.32v1.75H4.68v-.11c0-.24,0-.41,0-.52a.91.91,0,0,0-.4-.82A2.34,2.34,0,0,0,3,62a1.51,1.51,0,0,0-1.16.47,1.72,1.72,0,0,0-.44,1.23,1.8,1.8,0,0,0,.31,1.08,3.45,3.45,0,0,0,1.1.88l.7.4a7.38,7.38,0,0,1,2,1.44A2.33,2.33,0,0,1,6,69a2.62,2.62,0,0,1-.91,2,3.31,3.31,0,0,1-2.28.81,9.35,9.35,0,0,1-1.49-.11A6.77,6.77,0,0,1,0,71.39Z"></path>
            <path class="cls-1 white"
                  d="M8.93,68.56l-.57,1.31a3.48,3.48,0,0,0-.33,1q0,.28.86.28H9v.41H6.45v-.41h.14A1.23,1.23,0,0,0,7.27,71a7.31,7.31,0,0,0,.55-1.16l3.47-8.24h.46l3.45,8.28A5,5,0,0,0,15.78,71a1,1,0,0,0,.65.2h.15v.41H12.93v-.41h.12q.93,0,.93-.27a2.84,2.84,0,0,0-.28-1l-.55-1.31ZM9.15,68h3.77L11,63.54Z"></path>
            <path class="cls-1 white"
                  d="M23.83,71.59h-7.1v-.41h.13q.8-.05,1-.23A2.17,2.17,0,0,0,18,69.87V63.48a2.14,2.14,0,0,0-.15-1.07q-.15-.17-1-.23h-.13v-.41h3.85v.41h-.13q-.81.05-1,.23a2.18,2.18,0,0,0-.15,1.07v6.39a2,2,0,0,0,.13,1,2.07,2.07,0,0,0,1,.13h1a3.56,3.56,0,0,0,1.38-.14q.17-.14.22-1.13v-.13h.7Z"></path>
            <path class="cls-1 white"
                  d="M29.18,71.84a4.29,4.29,0,0,1-3.37-1.38,6.41,6.41,0,0,1,0-7.56,4.29,4.29,0,0,1,3.37-1.38,4.3,4.3,0,0,1,3.37,1.38,6.41,6.41,0,0,1,0,7.56A4.29,4.29,0,0,1,29.18,71.84Zm0-.44a2.62,2.62,0,0,0,2.3-1.25,6.21,6.21,0,0,0,.83-3.46,6.22,6.22,0,0,0-.83-3.47,2.74,2.74,0,0,0-4.6,0A6.22,6.22,0,0,0,26,66.68a6.21,6.21,0,0,0,.83,3.46A2.62,2.62,0,0,0,29.18,71.39Z"></path>
            <path class="cls-1 white"
                  d="M42.4,71.72l-5.94-8.24v6.38a2.18,2.18,0,0,0,.15,1.07q.15.17,1,.23h.12v.41H34.61v-.41h.12q.82-.06,1-.23a2.18,2.18,0,0,0,.15-1.07V63.48a2.2,2.2,0,0,0-.15-1.07c-.1-.11-.42-.19-1-.22h-.13v-.41h2.23l5.45,7.63V63.48a2.14,2.14,0,0,0-.15-1.07q-.15-.17-1-.23h-.12v-.41h3.06v.41H44q-.81.05-1,.23a2.18,2.18,0,0,0-.15,1.07v8.25Z"></path>
            <path class="cls-1 white"
                  d="M55.32,71.59l-.62-.68a5.08,5.08,0,0,1-2.73.93,3.27,3.27,0,0,1-2.35-.92,3,3,0,0,1-1-2.25q0-2.19,2.48-3a3.92,3.92,0,0,1-.76-2A2,2,0,0,1,51,62.12a2.33,2.33,0,0,1,1.65-.61,2.5,2.5,0,0,1,1.68.54A1.79,1.79,0,0,1,55,63.48q0,1.65-2.22,2.45l.25.42q.83,1.36,2.29,3.35a3.67,3.67,0,0,0,.59-2.1,1.81,1.81,0,0,0-.07-.65c0-.08-.16-.13-.35-.13l-.58,0h-.13v-.41H57.9v.41h-.14a3.67,3.67,0,0,0-.85.09s-.07.21-.07.54A4.63,4.63,0,0,1,55.62,70l.34.36.26.27a1.3,1.3,0,0,0,.6.45l.9.07h.09v.41Zm-.92-1A46.75,46.75,0,0,1,51.33,66,2.49,2.49,0,0,0,50,68.31a2.77,2.77,0,0,0,.76,2,2.51,2.51,0,0,0,1.9.8A3.31,3.31,0,0,0,54.4,70.56Zm-1.82-5a2.66,2.66,0,0,0,1.2-2.32q0-1.36-1-1.36t-1.07,1.35a4.11,4.11,0,0,0,.65,1.88Z"></path>
            <path class="cls-1"
                  d="M66.47,66.5a3.36,3.36,0,0,1,1.9.9,2.36,2.36,0,0,1,.69,1.73A2.17,2.17,0,0,1,68.24,71a4.17,4.17,0,0,1-2.5.61H61.95v-.41h.13q.8-.05,1-.23a2.17,2.17,0,0,0,.15-1.07V63.48A2.14,2.14,0,0,0,63,62.41q-.15-.17-1-.23h-.13v-.41h4a3.19,3.19,0,0,1,2,.56,2,2,0,0,1,.7,1.62,2.25,2.25,0,0,1-.55,1.51A3.92,3.92,0,0,1,66.47,66.5Zm-1.91-.23h.39a2.38,2.38,0,0,0,1.71-.55,2.17,2.17,0,0,0,.57-1.64,1.77,1.77,0,0,0-.53-1.45,3,3,0,0,0-1.82-.42h-.32Zm0,.44v3.16q0,1,.17,1.1a2,2,0,0,0,.94.17,1.91,1.91,0,0,0,1.42-.55,1.93,1.93,0,0,0,.54-1.43Q67.62,66.71,64.55,66.71Z"></path>
            <path class="cls-1"
                  d="M75.12,71.84a4.29,4.29,0,0,1-3.37-1.38,6.41,6.41,0,0,1,0-7.56,4.81,4.81,0,0,1,6.75,0,6.41,6.41,0,0,1,0,7.56A4.29,4.29,0,0,1,75.12,71.84Zm0-.44a2.62,2.62,0,0,0,2.3-1.25,6.21,6.21,0,0,0,.83-3.46,6.22,6.22,0,0,0-.83-3.47,2.74,2.74,0,0,0-4.6,0A6.22,6.22,0,0,0,72,66.68a6.21,6.21,0,0,0,.83,3.46A2.62,2.62,0,0,0,75.12,71.39Z"></path>
            <path class="cls-1"
                  d="M80.36,62.17v-.41h3.87v.41h-.12q-.82.05-1,.22A2.18,2.18,0,0,0,83,63.48v4.21a15.11,15.11,0,0,0,.08,2,2,2,0,0,0,.4.88,2.28,2.28,0,0,0,1.93.84,2.6,2.6,0,0,0,1.93-.73,2,2,0,0,0,.53-.91A8.61,8.61,0,0,0,88,68v-4.5a2.14,2.14,0,0,0-.15-1.07q-.15-.17-1-.23h-.12v-.41h3.15v.41h-.13q-.82.05-1,.22a2.23,2.23,0,0,0-.14,1.07V67.6a9.49,9.49,0,0,1-.15,2,2.92,2.92,0,0,1-.61,1.19,3.27,3.27,0,0,1-2.67,1q-3.65,0-3.65-3.93V63.48a2.14,2.14,0,0,0-.15-1.07c-.1-.12-.42-.19-1-.23Z"></path>
            <path class="cls-1"
                  d="M93.7,62.29H92.14a6.71,6.71,0,0,0-1,.06q-.27,0-.27.49t0,.58v.13h-.7v-1.8h8.44v1.8h-.7v-.13q0-.25,0-.58t-.27-.49a6.79,6.79,0,0,0-1-.06H95.1v7.58a2.09,2.09,0,0,0,.16,1.07c.11.13.42.2.95.23h.29v.41H92.32v-.41h.29q.79,0,.95-.23a2.14,2.14,0,0,0,.16-1.07Z"></path>
            <path class="cls-1"
                  d="M102.92,71.18v.41H99.06v-.41h.13q.8-.05,1-.23a2.17,2.17,0,0,0,.15-1.07V63.48a2.14,2.14,0,0,0-.15-1.07q-.15-.17-1-.23h-.13v-.41h3.85v.41h-.13q-.81.05-1,.23a2.18,2.18,0,0,0-.15,1.07v6.39a2.21,2.21,0,0,0,.15,1.07q.15.18,1,.23Z"></path>
            <path class="cls-1"
                  d="M109.93,71.59a11.82,11.82,0,0,0,4.9,1.17l-1.65.82a16.86,16.86,0,0,1-3.85-1.83,5.62,5.62,0,0,1-1,.09A4.28,4.28,0,0,1,105,70.45a6.41,6.41,0,0,1,0-7.56,4.82,4.82,0,0,1,6.74,0A5.34,5.34,0,0,1,113,66.6a6.11,6.11,0,0,1-.76,3.22A4.13,4.13,0,0,1,109.93,71.59Zm1.57-4.91a6.23,6.23,0,0,0-.83-3.47,2.75,2.75,0,0,0-4.61,0,6.23,6.23,0,0,0-.83,3.47,6.24,6.24,0,0,0,.82,3.47,2.76,2.76,0,0,0,4.61,0A6.22,6.22,0,0,0,111.5,66.68Z"></path>
            <path class="cls-1"
                  d="M113.62,62.17v-.41h3.87v.41h-.12q-.82.05-1,.22a2.18,2.18,0,0,0-.15,1.07v4.21a15.11,15.11,0,0,0,.08,2,2,2,0,0,0,.4.88,2.28,2.28,0,0,0,1.93.84,2.6,2.6,0,0,0,1.93-.73,2,2,0,0,0,.53-.91,8.61,8.61,0,0,0,.12-1.78v-4.5a2.14,2.14,0,0,0-.15-1.07q-.15-.17-1-.23H120v-.41h3.15v.41H123q-.82.05-1,.22a2.23,2.23,0,0,0-.14,1.07V67.6a9.49,9.49,0,0,1-.15,2,2.92,2.92,0,0,1-.61,1.19,3.27,3.27,0,0,1-2.67,1q-3.65,0-3.65-3.93V63.48a2.14,2.14,0,0,0-.15-1.07c-.1-.12-.42-.19-1-.23Z"></path>
            <path class="cls-1"
                  d="M130.53,71.59h-7.09v-.41h.13q.8-.05,1-.23a2.17,2.17,0,0,0,.15-1.07V63.48a2.14,2.14,0,0,0-.15-1.07q-.15-.17-1-.23h-.13v-.41h6.72v1.72h-.74v-.13a2.86,2.86,0,0,0-.14-1,3.55,3.55,0,0,0-1.07-.07h-2.15v3.93h1.8a2.41,2.41,0,0,0,.73-.06c.09,0,.14-.25.16-.63v-.12h.53v2.16h-.53v-.12q0-.5-.16-.6a1.63,1.63,0,0,0-.73-.1h-1.8v3.12a1.57,1.57,0,0,0,.18,1,1.48,1.48,0,0,0,.95.19h1.05a3.8,3.8,0,0,0,1.33-.12q.16-.12.21-1v-.12h.74Z"></path>
        </g>
    </g>
</svg>